<svg width="58" height="24" viewBox="0 0 58 24" fill="none" xmlns="http://www.w3.org/2000/svg">
<path d="M22.34 9.33L20.34 8.33C19.97 8.15 19.51 8.29 19.33 8.66C19.14 9.04 19.29 9.49 19.66 9.67L21.25 10.46V15.25L17.5 15.26V5C17.5 3 16.16 2 14.5 2H6.5C4.84 2 3.5 3 3.5 5V21.25H2C1.59 21.25 1.25 21.59 1.25 22C1.25 22.41 1.59 22.75 2 22.75H19C19.41 22.75 19.75 22.41 19.75 22C19.75 21.59 19.41 21.25 19 21.25H17.5V16.76L22 16.75C22.42 16.75 22.75 16.41 22.75 16V10C22.75 9.72 22.59 9.46 22.34 9.33ZM6 6.89C6 5.5 6.85 5 7.89 5H13.12C14.15 5 15 5.5 15 6.89V8.12C15 9.5 14.15 10 13.11 10H7.89C6.85 10 6 9.5 6 8.11V6.89ZM6.5 12.25H9.5C9.91 12.25 10.25 12.59 10.25 13C10.25 13.41 9.91 13.75 9.5 13.75H6.5C6.09 13.75 5.75 13.41 5.75 13C5.75 12.59 6.09 12.25 6.5 12.25Z" fill="#90A3BF"/>
<path d="M34.41 18.168C33.71 18.168 33.0893 18.028 32.548 17.748C32.016 17.468 31.596 17.09 31.288 16.614C30.9893 16.1287 30.84 15.5873 30.84 14.99C30.84 14.318 31.0267 13.73 31.4 13.226C31.7733 12.722 32.2867 12.3627 32.94 12.148L32.912 12.498C32.4173 12.302 32.03 11.9893 31.75 11.56C31.4793 11.1213 31.344 10.65 31.344 10.146C31.344 9.614 31.4747 9.14267 31.736 8.732C32.0067 8.32133 32.3707 7.99933 32.828 7.766C33.2947 7.52333 33.822 7.402 34.41 7.402C34.998 7.402 35.5207 7.51867 35.978 7.752C36.4353 7.98533 36.7947 8.312 37.056 8.732C37.3267 9.14267 37.462 9.614 37.462 10.146C37.462 10.678 37.3173 11.154 37.028 11.574C36.748 11.994 36.3747 12.3067 35.908 12.512L35.866 12.148C36.5287 12.3627 37.0467 12.7267 37.42 13.24C37.7933 13.744 37.98 14.3273 37.98 14.99C37.98 15.5873 37.826 16.1287 37.518 16.614C37.2193 17.09 36.7993 17.468 36.258 17.748C35.726 18.028 35.11 18.168 34.41 18.168ZM34.41 16.978C34.8487 16.978 35.2313 16.894 35.558 16.726C35.8847 16.558 36.1367 16.3247 36.314 16.026C36.5007 15.718 36.594 15.368 36.594 14.976C36.594 14.5747 36.5007 14.2247 36.314 13.926C36.1367 13.618 35.8847 13.3847 35.558 13.226C35.2313 13.058 34.8487 12.974 34.41 12.974C33.9713 12.974 33.584 13.058 33.248 13.226C32.9213 13.3847 32.6693 13.618 32.492 13.926C32.3147 14.2247 32.226 14.5747 32.226 14.976C32.226 15.368 32.3147 15.718 32.492 16.026C32.6693 16.3247 32.9213 16.558 33.248 16.726C33.584 16.894 33.9713 16.978 34.41 16.978ZM34.41 11.784C34.7273 11.784 35.0073 11.714 35.25 11.574C35.502 11.434 35.7027 11.2473 35.852 11.014C36.0013 10.7713 36.076 10.4913 36.076 10.174C36.076 9.85667 36.0013 9.58133 35.852 9.348C35.7027 9.11467 35.502 8.93267 35.25 8.802C35.0073 8.662 34.7273 8.592 34.41 8.592C34.0833 8.592 33.794 8.662 33.542 8.802C33.29 8.93267 33.0893 9.11467 32.94 9.348C32.7907 9.58133 32.716 9.85667 32.716 10.174C32.716 10.4913 32.7907 10.7713 32.94 11.014C33.0893 11.2473 33.29 11.434 33.542 11.574C33.794 11.714 34.0833 11.784 34.41 11.784ZM43.6067 18.168C42.776 18.168 42.048 17.944 41.4227 17.496C40.8067 17.0387 40.326 16.4087 39.9807 15.606C39.6354 14.794 39.4627 13.8513 39.4627 12.778C39.4627 11.7047 39.6354 10.7667 39.9807 9.964C40.326 9.152 40.8067 8.522 41.4227 8.074C42.0387 7.626 42.762 7.402 43.5927 7.402C44.4234 7.402 45.1467 7.626 45.7627 8.074C46.3787 8.522 46.8594 9.152 47.2047 9.964C47.5594 10.7667 47.7367 11.7047 47.7367 12.778C47.7367 13.8513 47.564 14.794 47.2187 15.606C46.8734 16.418 46.388 17.048 45.7627 17.496C45.1467 17.944 44.428 18.168 43.6067 18.168ZM43.6067 16.894C44.1667 16.894 44.652 16.726 45.0627 16.39C45.4734 16.0447 45.7907 15.564 46.0147 14.948C46.248 14.332 46.3647 13.6087 46.3647 12.778C46.3647 11.9473 46.248 11.224 46.0147 10.608C45.7907 9.992 45.4687 9.516 45.0487 9.18C44.638 8.844 44.1527 8.676 43.5927 8.676C43.0327 8.676 42.5474 8.844 42.1367 9.18C41.726 9.516 41.404 9.992 41.1707 10.608C40.9467 11.224 40.8347 11.9473 40.8347 12.778C40.8347 13.5993 40.9467 14.318 41.1707 14.934C41.404 15.55 41.726 16.0307 42.1367 16.376C42.5567 16.7213 43.0467 16.894 43.6067 16.894ZM49.5375 18V7.57H50.9095V16.74H55.4875V18H49.5375Z" fill="#90A3BF"/>
</svg>
